solid OpenSCAD_Model
  facet normal -1 0 0
    outer loop
      vertex -0.9 -0.675 0
      vertex -0.9 -0.675 1
      vertex -0.9 0.675 0
    endloop
  endfacet
  facet normal -1 0 0
    outer loop
      vertex -0.9 0.675 0
      vertex -0.9 -0.675 1
      vertex -0.9 0.675 1
    endloop
  endfacet
  facet normal 0 -1 0
    outer loop
      vertex -0.9 -0.675 1
      vertex -0.9 -0.675 0
      vertex 0.9 -0.675 0
    endloop
  endfacet
  facet normal 0 -1 0
    outer loop
      vertex 0.9 -0.675 1
      vertex -0.9 -0.675 1
      vertex 0.9 -0.675 0
    endloop
  endfacet
  facet normal 0 0 -1
    outer loop
      vertex -0.9 -0.675 0
      vertex -0.9 0.675 0
      vertex 0.9 -0.675 0
    endloop
  endfacet
  facet normal 0 0 -1
    outer loop
      vertex 0.9 -0.675 0
      vertex -0.9 0.675 0
      vertex 0.9 0.675 0
    endloop
  endfacet
  facet normal 0 1 0
    outer loop
      vertex -0.9 0.675 0
      vertex -0.9 0.675 1
      vertex 0.9 0.675 0
    endloop
  endfacet
  facet normal 0 1 0
    outer loop
      vertex 0.9 0.675 0
      vertex -0.9 0.675 1
      vertex 0.9 0.675 1
    endloop
  endfacet
  facet normal 0 0 1
    outer loop
      vertex -0.9 0.675 1
      vertex -0.9 -0.675 1
      vertex 0.9 -0.675 1
    endloop
  endfacet
  facet normal 0 0 1
    outer loop
      vertex 0.9 0.675 1
      vertex -0.9 0.675 1
      vertex 0.9 -0.675 1
    endloop
  endfacet
  facet normal 1 0 0
    outer loop
      vertex 0.9 -0.675 1
      vertex 0.9 -0.675 0
      vertex 0.9 0.675 0
    endloop
  endfacet
  facet normal 1 0 0
    outer loop
      vertex 0.9 0.675 1
      vertex 0.9 -0.675 1
      vertex 0.9 0.675 0
    endloop
  endfacet
  facet normal -1 0 0
    outer loop
      vertex 0.9 -0.175 0
      vertex 0.9 -0.175 0.25
      vertex 0.9 0.225 0
    endloop
  endfacet
  facet normal -1 0 0
    outer loop
      vertex 0.9 0.225 0
      vertex 0.9 -0.175 0.25
      vertex 0.9 0.225 0.25
    endloop
  endfacet
  facet normal 0 -1 0
    outer loop
      vertex 0.9 -0.175 0.25
      vertex 0.9 -0.175 0
      vertex 1.3 -0.175 0
    endloop
  endfacet
  facet normal 0 -1 0
    outer loop
      vertex 1.3 -0.175 0.25
      vertex 0.9 -0.175 0.25
      vertex 1.3 -0.175 0
    endloop
  endfacet
  facet normal 0 0 -1
    outer loop
      vertex 0.9 -0.175 0
      vertex 0.9 0.225 0
      vertex 1.3 -0.175 0
    endloop
  endfacet
  facet normal 0 0 -1
    outer loop
      vertex 1.3 -0.175 0
      vertex 0.9 0.225 0
      vertex 1.3 0.225 0
    endloop
  endfacet
  facet normal 0 1 0
    outer loop
      vertex 0.9 0.225 0
      vertex 0.9 0.225 0.25
      vertex 1.3 0.225 0
    endloop
  endfacet
  facet normal 0 1 0
    outer loop
      vertex 1.3 0.225 0
      vertex 0.9 0.225 0.25
      vertex 1.3 0.225 0.25
    endloop
  endfacet
  facet normal 0 0 1
    outer loop
      vertex 0.9 0.225 0.25
      vertex 0.9 -0.175 0.25
      vertex 1.3 -0.175 0.25
    endloop
  endfacet
  facet normal 0 0 1
    outer loop
      vertex 1.3 0.225 0.25
      vertex 0.9 0.225 0.25
      vertex 1.3 -0.175 0.25
    endloop
  endfacet
  facet normal 1 0 0
    outer loop
      vertex 1.3 -0.175 0.25
      vertex 1.3 -0.175 0
      vertex 1.3 0.225 0
    endloop
  endfacet
  facet normal 1 0 0
    outer loop
      vertex 1.3 0.225 0.25
      vertex 1.3 -0.175 0.25
      vertex 1.3 0.225 0
    endloop
  endfacet
  facet normal -1 0 0
    outer loop
      vertex -1.3 -0.175 0
      vertex -1.3 -0.175 0.25
      vertex -1.3 0.225 0
    endloop
  endfacet
  facet normal -1 0 0
    outer loop
      vertex -1.3 0.225 0
      vertex -1.3 -0.175 0.25
      vertex -1.3 0.225 0.25
    endloop
  endfacet
  facet normal 0 -1 0
    outer loop
      vertex -1.3 -0.175 0.25
      vertex -1.3 -0.175 0
      vertex -0.9 -0.175 0
    endloop
  endfacet
  facet normal 0 -1 0
    outer loop
      vertex -0.9 -0.175 0.25
      vertex -1.3 -0.175 0.25
      vertex -0.9 -0.175 0
    endloop
  endfacet
  facet normal 0 0 -1
    outer loop
      vertex -1.3 -0.175 0
      vertex -1.3 0.225 0
      vertex -0.9 -0.175 0
    endloop
  endfacet
  facet normal 0 0 -1
    outer loop
      vertex -0.9 -0.175 0
      vertex -1.3 0.225 0
      vertex -0.9 0.225 0
    endloop
  endfacet
  facet normal 0 1 0
    outer loop
      vertex -1.3 0.225 0
      vertex -1.3 0.225 0.25
      vertex -0.9 0.225 0
    endloop
  endfacet
  facet normal 0 1 0
    outer loop
      vertex -0.9 0.225 0
      vertex -1.3 0.225 0.25
      vertex -0.9 0.225 0.25
    endloop
  endfacet
  facet normal 0 0 1
    outer loop
      vertex -1.3 0.225 0.25
      vertex -1.3 -0.175 0.25
      vertex -0.9 -0.175 0.25
    endloop
  endfacet
  facet normal 0 0 1
    outer loop
      vertex -0.9 0.225 0.25
      vertex -1.3 0.225 0.25
      vertex -0.9 -0.175 0.25
    endloop
  endfacet
  facet normal 1 0 0
    outer loop
      vertex -0.9 -0.175 0.25
      vertex -0.9 -0.175 0
      vertex -0.9 0.225 0
    endloop
  endfacet
  facet normal 1 0 0
    outer loop
      vertex -0.9 0.225 0.25
      vertex -0.9 -0.175 0.25
      vertex -0.9 0.225 0
    endloop
  endfacet
endsolid OpenSCAD_Model
